<!DOCTYPE svg PUBLIC "-//W3C//DTD SVG 1.1//EN" "http://www.w3.org/Graphics/SVG/1.1/DTD/svg11.dtd">

<!-- Uploaded to: SVG Repo, www.svgrepo.com, Transformed by: SVG Repo Mixer Tools -->
<svg width="30px" height="30px" viewBox="0 0 32.00 32.00" enable-background="new 0 0 32 32" id="Editable-line" version="1.1" xml:space="preserve" xmlns="http://www.w3.org/2000/svg" xmlns:xlink="http://www.w3.org/1999/xlink" fill="#000000">

<g id="SVGRepo_bgCarrier" stroke-width="0"/>

<g id="SVGRepo_tracerCarrier" stroke-linecap="round" stroke-linejoin="round"/>

<g id="SVGRepo_iconCarrier">

<path d=" M25,10H7v17c0,1.105,0.895,2,2,2h14c1.105,0,2-0.895,2-2V10z" fill="none" id="XMLID_129_" stroke="#e11414" stroke-linecap="round" stroke-linejoin="round" stroke-miterlimit="10" stroke-width="2"/>

<path d=" M20,7h-8V5c0-1.105,0.895-2,2-2h4c1.105,0,2,0.895,2,2V7z" fill="none" id="XMLID_145_" stroke="#e11414" stroke-linecap="round" stroke-linejoin="round" stroke-miterlimit="10" stroke-width="2"/>

<path d=" M28,10H4V8c0-0.552,0.448-1,1-1h22c0.552,0,1,0.448,1,1V10z" fill="none" id="XMLID_146_" stroke="#e11414" stroke-linecap="round" stroke-linejoin="round" stroke-miterlimit="10" stroke-width="2"/>

<line fill="none" id="XMLID_148_" stroke="#e11414" stroke-linecap="round" stroke-linejoin="round" stroke-miterlimit="10" stroke-width="2" x1="16" x2="16" y1="15" y2="24"/>

<line fill="none" id="XMLID_147_" stroke="#e11414" stroke-linecap="round" stroke-linejoin="round" stroke-miterlimit="10" stroke-width="2" x1="12" x2="12" y1="15" y2="24"/>

<line fill="none" id="XMLID_149_" stroke="#e11414" stroke-linecap="round" stroke-linejoin="round" stroke-miterlimit="10" stroke-width="2" x1="20" x2="20" y1="15" y2="24"/>

</g>

</svg>